<svg version="1.2" xmlns="http://www.w3.org/2000/svg" viewBox="0 0 187 133" width="187" height="133">
	<title>rockpaperscissors-svg</title>
	<style>
		.s0 { fill: #ffffff;stroke: #000000;stroke-linecap: round;stroke-linejoin: round;stroke-width: 5 } 
		.s1 { fill: #000000 } 
		.s2 { fill: none;stroke: #000000;stroke-linecap: round;stroke-linejoin: round;stroke-width: 5 } 
	</style>
	<g id="layer1">
		<g id="imagebot_10">
			<path id="imagebot_18" class="s0" d="m14.4 63c-8.7 1.4-11.1-5.2-11.8-13c-0.9-11.1 10.6-32.8 18.5-38.6c7.2-5.4 14.8-6 19-0.3" />
			<path id="imagebot_17" class="s0" d="m114.5 35.9c16.4 3.2 30.1 3 47.3 6.4c25.3 5 25.5 37.2 5 32.7c-12.5-2.7-31.8-3.6-45-4.8c20.8 11.2 27.9 16.7 37.1 22c19.6 11.2 12.5 44.3-8.3 32.1c-13.9-8.1-29.1-15.9-42.2-21c-7.3 4.7-25.4 15.3-46 8.6c-5.6-1.9-12.1-4.9-17.5-8.4c-15.1-9.9-25.5-22.5-30-40.6c-2.7-10.7 7.8-33.4 15.3-42.3c14.8-17.2 49.7-22.6 67.1-14.3c18.2 8.7 16 25.4 17.2 29.6z" />
			<path id="imagebot_16" class="s1" d="m123.9 74.1c-2.4-1.3-4.4-2-6.2-2.4c-10.5-2.1-13.1-2.2-23.1-3.5c4.2-0.4 12.9-2.8 28.7-0.4z" />
			<path id="imagebot_15" class="s1" d="m107.5 105.5c-9.2-3.1-16.7-5.9-26.3-9.4c7.9-0.6 19.2 1.4 28 4.8c-0.9 2.3-1.7 4.6-1.7 4.6z" />
			<path id="imagebot_14" class="s2" d="m27.7 55.4c9.1 9.1 12.3 10.3 17.4 14" />
			<path id="imagebot_13" class="s2" d="m31.2 44.3c12.4 7.3 19 9.7 27.5 13.8" />
			<path id="imagebot_12" class="s2" d="m35.9 31.3c9.1 3.9 13.7 4.8 19.6 6.7" />
			<path id="imagebot_11" class="s1" d="m114.2 38.4c-23.9-5.4-24.1-14.8-31.7-24.7c8.1 7.8 13.2 16.7 34.2 20.1z" />
		</g>
		<g id="g5439">
			<g id="g3915-6-1-6-3-8-9-4">
				<path id="path3894-6-1-0-5-5-2-9" class="s0" d="m113.2 334.4c-3 8.3-10 7.3-17.1 4.1c-10.2-4.5-23.7-25-25-34.7c-1.2-8.9 1.9-15.9 8.9-16.8" />
				<path id="path3112-2-8-6-8-2-9-8" class="s0" d="m112.9 252.7c24.1-17.7 41.7-44.1 53-57.5c16.4-19.8 44.8-4.5 31 11.3c-8.4 9.6-18.4 26.1-25.8 37.1c19.8-12.8 28-16.4 37-21.9c19.3-11.8 45 10.3 24.3 22.7c-13.9 8.3-27.9 17.9-38.7 26.9c-4.4 3.7 28.6-3.2 32.9-4.6c8.9-3 25.2 4.3 16.8 15.8c-3 4.1-50.1 20.3-64.3 33.3c-4.4 4-10.2 8.3-15.8 11.3c-16 8.5-31.9 11.6-50.1 6.8c-10.6-2.7-25.6-22.8-29.6-33.8c-6.2-16.8 3.8-43.3 0.3-49.8c-9.1-16.7-15.1-33.9-4.3-36.2c32.6-7.1 33.5 23.5 33.3 38.6z" />
				<path id="path3882-6-1-33-9-9-7-9" class="s1" d="m175.5 243.7c-2.2 1.4-3.8 2.8-5 4.2c-7 8.2-8.2 10.5-14.1 18.6c1.5-3.9 3.6-12.6 13.4-25.4z" />
				<path id="path3884-6-1-2-9-6-6-0" class="s1" d="m196.9 274.8c-3 0.2-4.7 1.1-6.3 2.5c-5.8 5.2-12.4 11-16.3 14.4c3.3-7.2 10.5-16.2 17.7-22.3c1.5 1.9 2.9 3.9 4.9 5.4z" />
				<path id="path3886-8-5-4-3-7-0-8" class="s2" d="m112.9 319.1c12.3-3.7 15-5.9 20.6-8.6" />
				<path id="path3888-4-4-9-8-4-7-4" class="s2" d="m104.9 310.6c12.3-7.2 17.5-11.9 25.3-17.5" />
				<path id="path3890-1-8-5-1-8-9-7" class="s2" d="m95.7 300.3c7.7-6.1 10.8-9.7 15.3-14.1" />
			</g>
		</g>
		<g id="g32290">
			<path id="path32292" class="s0" d="m389.5 74.2c5.4-4.6 12.6-2.3 18.5 4.6c6.3 7.4 12.6 31.2 9.2 41.7c-2.5 7.5-6.4 13.4-14.5 10.1" />
			<path id="path32294" class="s0" d="m334.8 56.5c18.9-4.1 51.7 9 62.2 29.1c5.3 10.4 10.3 35 5.3 44.7c-8.6 16.7-21.6 26.5-38.5 32.7c-6.1 2.2-13.1 3.7-18.9 4.2c-24.1 2.6-43-2.1-42.9-18.8c-20.3-1.8-20.5-32.7-5.6-35.3c-19.7-12.6-7.2-37.6 15-31.7c2.1-3.8 3.8-20.6 23.4-24.9z" />
			<path id="path32296" class="s1" d="m294.7 116.3l-0.1-7.6c2.2 1.5 4 2.1 5.8 2.4c10.6 2.1 13.1 2.1 23.2 3.4c-4.2 0.5-10.2 3.4-26.1 1c-1.1 0.1-3.2 0.9-2.8 0.8z" />
			<path id="path32298" class="s1" d="m302.4 146c7.8 0 21.1 1.2 26.3 1.4c-7.2 3.1-18.8 3.7-28.2 3.3c1.9-4.7 1.9-4.8 1.9-4.7z" />
			<path id="path32300" class="s2" d="m391.5 120.1c-11 6.8-14.4 7.3-20.1 9.7" />
			<path id="path32302" class="s2" d="m390.5 108.5c-13.6 4.4-20.6 5.1-29.9 7.2" />
			<path id="path32304" class="s2" d="m389 94.8c-9.7 1.7-14.5 1.6-20.7 2" />
			<path id="path32306" class="s1" d="m309.7 78.8c21.2 1.5 28.2-6 37.9-11.8c-9.7 8-12 17.1-36.5 16.9z" />
		</g>
	</g>
</svg>